<?xml version="1.0" ?><svg id="Layer_1" style="enable-background:new 0 0 512 512;" version="1.1" viewBox="0 0 512 512" xml:space="preserve" xmlns="http://www.w3.org/2000/svg" xmlns:xlink="http://www.w3.org/1999/xlink"><style type="text/css">
	.st0{fill:#A5353D;}
	.st1{opacity:0.1;}
	.st2{fill:#C9494F;}
	.st3{fill:#FFFFFF;}
</style><g id="XMLID_63_"><g id="XMLID_136_"><circle class="st0" cx="256" cy="256" id="XMLID_151_" r="250"/><circle class="st1" cx="262.8" cy="265.3" id="XMLID_150_" r="202.8"/><circle class="st2" cx="256" cy="256" id="XMLID_147_" r="202.8"/></g><g id="XMLID_754_"><g id="XMLID_794_"><g id="XMLID_826_"><g id="XMLID_852_"><polygon class="st3" id="XMLID_853_" points="220.7,146.2 192.4,138.4 193.4,134.6 219.2,141.7 234.3,122.4 237.4,124.8             "/></g><g id="XMLID_849_"><polygon class="st3" id="XMLID_851_" points="227.1,169 198.9,161.2 199.9,157.4 225.7,164.5 240.7,145.2 243.8,147.7      "/></g><g id="XMLID_827_"><polygon class="st3" id="XMLID_828_" points="233.8,191.9 205.5,184.1 206.5,180.3 232.3,187.4 247.4,168.1 250.5,170.6             "/></g></g><g id="XMLID_795_"><g id="XMLID_807_"><polygon class="st3" id="XMLID_822_" points="291.3,146.2 274.6,124.8 277.7,122.4 292.8,141.7 318.6,134.6 319.6,138.4             "/></g><g id="XMLID_805_"><polygon class="st3" id="XMLID_806_" points="284.9,169 268.2,147.7 271.3,145.2 286.3,164.5 312.1,157.4 313.1,161.2      "/></g><g id="XMLID_803_"><polygon class="st3" id="XMLID_804_" points="278.2,191.9 261.5,170.6 264.6,168.1 279.7,187.4 305.5,180.3 306.5,184.1             "/></g></g></g><g id="XMLID_792_"><g id="XMLID_53_"><ellipse class="st3" cx="257.6" cy="327.4" id="XMLID_59_" rx="27.2" ry="20.4"/><path class="st3" d="M256,197.1c-44.2,0-80.1,82.6-80.1,124c0,41.4,35.8,74.9,80.1,74.9s80.1-33.5,80.1-74.9      C336.1,279.8,300.2,197.1,256,197.1z M278.2,249.9c2.8,0,5,2.3,5,5s-2.3,5-5,5c-2.8,0-5-2.3-5-5S275.4,249.9,278.2,249.9z       M233.8,249.9c2.8,0,5,2.3,5,5s-2.3,5-5,5s-5-2.3-5-5S231,249.9,233.8,249.9z M257.6,380.9c-29,0-52.5-17.6-52.5-39.4      c0-21.7,23.5-39.4,52.5-39.4c29,0,52.5,17.6,52.5,39.4C310.1,363.3,286.6,380.9,257.6,380.9z" id="XMLID_54_"/></g></g><path class="st3" d="M308.3,221.5l10.7-8.6c3.8-3,4.4-8.5,1.3-12.3h0c-3-3.8-8.5-4.4-12.3-1.3l-11.2,9    C300.8,212.1,304.6,216.6,308.3,221.5z" id="XMLID_779_"/><path class="st3" d="M193,212.9l10.7,8.6c3.7-5,7.5-9.4,11.5-13.2l-11.2-9c-3.8-3-9.3-2.4-12.3,1.3    S189.2,209.9,193,212.9z" id="XMLID_756_"/><path class="st3" d="M279.4,195l22.4-78l-3.8-1.1l-22.2,77.3C277.1,193.8,278.3,194.4,279.4,195z" id="XMLID_757_"/><path class="st3" d="M236.1,193.3L213.9,116l-3.8,1.1l22.4,78C233.7,194.4,234.9,193.8,236.1,193.3z" id="XMLID_758_"/></g></g></svg>